inDegrees=no
num_controls=7
num_derivatives=13
num_iterations=104
num_multipliers=7
num_parameters=0
num_slacks=7
num_states=26
objective=4.458659
objective_accelerations=0.114164
objective_balance=0.047760
objective_effort=0.195651
objective_height=4.029097
objective_ligament=0.071987
solver_duration=1117.250135
status=Solve_Succeeded
success=true
DataType=double
version=3
OpenSimVersion=4.4-2022-07-23-0e9fedc
endheader
time	/jointset/ground_pelvis/pelvis_tilt/value	/jointset/ground_pelvis/pelvis_tx/value	/jointset/ground_pelvis/pelvis_ty/value	/jointset/hip_l/hip_flexion_l/value	/jointset/hip_l/hip_adduction_l/value	/jointset/hip_l/hip_rotation_l/value	/jointset/back/lumbar_extension/value	/jointset/patellofemoral_l/patellar_flexion_l/value	/jointset/knee_l/knee_flexion_l/value	/jointset/knee_l/knee_adduction_l/value	/jointset/knee_l/knee_rotation_l/value	/jointset/ankle_l/ankle_angle_l/value	/jointset/subtalar_l/subtalar_angle_l/value	/jointset/ground_pelvis/pelvis_tilt/speed	/jointset/ground_pelvis/pelvis_tx/speed	/jointset/ground_pelvis/pelvis_ty/speed	/jointset/hip_l/hip_flexion_l/speed	/jointset/hip_l/hip_adduction_l/speed	/jointset/hip_l/hip_rotation_l/speed	/jointset/back/lumbar_extension/speed	/jointset/patellofemoral_l/patellar_flexion_l/speed	/jointset/knee_l/knee_flexion_l/speed	/jointset/knee_l/knee_adduction_l/speed	/jointset/knee_l/knee_rotation_l/speed	/jointset/ankle_l/ankle_angle_l/speed	/jointset/subtalar_l/subtalar_angle_l/speed	/forceset/tau_hip_flexion_l	/forceset/tau_hip_adduction_l	/forceset/tau_hip_rotation_l	/forceset/tau_knee_flexion_l	/forceset/tau_ankle_angle_l	/forceset/tau_subtalar_angle_l	/forceset/tau_lumbar_extension	lambda_cid13_p0	lambda_cid13_p1	lambda_cid13_p2	lambda_cid13_p3	lambda_cid13_p4	lambda_cid13_p5	lambda_cid14_p0	/jointset/ground_pelvis/pelvis_tilt/accel	/jointset/ground_pelvis/pelvis_tx/accel	/jointset/ground_pelvis/pelvis_ty/accel	/jointset/hip_l/hip_flexion_l/accel	/jointset/hip_l/hip_adduction_l/accel	/jointset/hip_l/hip_rotation_l/accel	/jointset/back/lumbar_extension/accel	/jointset/patellofemoral_l/patellar_flexion_l/accel	/jointset/knee_l/knee_flexion_l/accel	/jointset/knee_l/knee_adduction_l/accel	/jointset/knee_l/knee_rotation_l/accel	/jointset/ankle_l/ankle_angle_l/accel	/jointset/subtalar_l/subtalar_angle_l/accel	gamma_cid13_p0	gamma_cid13_p1	gamma_cid13_p2	gamma_cid13_p3	gamma_cid13_p4	gamma_cid13_p5	gamma_cid14_p0
0.5	0.1116187894411103	0.05604347641795888	0.9082273536828419	0.303332768520346	-0.31933556537186	-0.2081615735721636	-0.726279645105195	0.525446007547649	0.525446007547531	-0.1468316824280301	-0.1745132177679408	0.1505162162108155	0.02787220134837899	0.4324939831219591	0.007238102233289377	-0.04897848608062482	-0.0801369902422021	-0.05127066390456888	0.2289862766999186	-0.8629675670636545	0.7122171044384826	0.7122171044384857	0.06482634095420592	-1.782138893126499e-05	0.4111846928376984	0.09298264373071562	-0.107470921732208	0.03860037740305489	-0.00286886800074919	-0.1812430436823832	-0.002826140950163328	0.03234449448320042	0.2236609302833834	-45.51181458719022	-9.813361099823073	5.376406138100471	4.23938630953943	-704.78010757092	-76.75553689190731	-22.62207588485553	-0.07902265270256423	0.0862670549738915	-0.03240698979195183	-0.4659541836440086	0.09517150704523179	-0.3047333281061808	0.8708605384815098	-0.729577560787123	-0.729577560787123	-0.08888069112859077	0.005491547991499307	-0.22557533745233	0.06053030553030156	1.124404340534033e-08	-5.32549603790016e-08	-3.136737650621252e-08	-1.918396686210612e-08	1.932719598439723e-08	3.846628541601626e-09	-1.207679564349717e-09
0.51	0.1159390255625036	0.05612018899352122	0.9077360431442113	0.3025084035163526	-0.3198434826845777	-0.2058874984281626	-0.7348643759155116	0.5325308603751736	0.5325308603751506	-0.1461877820117449	-0.1745133806149607	0.1546163031875115	0.02880493218656265	0.4315001961013444	0.008107052317421461	-0.0492691262496621	-0.08474628458812181	-0.05030974489124417	0.2257968038159605	-0.8538622616178501	0.704644100637823	0.7046441006378164	0.06394504901078046	-1.369668686230445e-05	0.4087780239070508	0.09354823734373365	-0.1086733315874891	0.03984593467240161	-0.002842177928662239	-0.1824259176481479	-0.005877932314986069	0.0324376544867439	0.2262913306795337	-46.53403358808144	-9.678243438653094	5.358755192625693	4.557840838655237	-705.9092240572385	-76.49131609561027	-22.49903678589197	-0.117513125055137	0.08760107546643145	-0.02521390066801647	-0.4599570829795592	0.0970221295071514	-0.3308447417112309	0.947815556276098	-0.7875658031282295	-0.7875658031295871	-0.08906783944039015	-0.001975711623217379	-0.2564147004283255	0.05229237243847456	1.286124272491875e-08	-4.199223994895413e-08	-3.875515309339396e-08	-1.865279129833343e-08	2.243391769432433e-08	1.470035396608313e-08	3.267425159376853e-10
0.52	0.1202477325339867	0.05620566948798974	0.9072422619298489	0.3016376375643036	-0.320341696800931	-0.2036462761076457	-0.7433545636696463	0.5395367023620039	0.5395367023621044	-0.145552957393588	-0.1745134719435661	0.1586906830689877	0.0297428626575286	0.4301881531483104	0.008991686014524535	-0.04947262122700954	-0.08941717985056732	-0.04933002463668239	0.2224157120051777	-0.8440589558260854	0.6964149363002514	0.696414936300235	0.06301118132772647	-3.517702306498803e-06	0.4060432737941015	0.09402257028678571	-0.1098757414426968	0.04109149194172753	-0.002815487856409604	-0.1836087916138999	-0.008929723679808481	0.03253081449026093	0.2289217310757406	-47.5614263842587	-9.541826088149078	5.340447368452267	4.879990851481399	-707.1189037630413	-76.23616932929926	-22.37066382845581	-0.1426738391857147	0.08940377756772845	-0.01497795145398143	-0.4782743669492451	0.09893175529268455	-0.3430571134710852	1.01046060767408	-0.8608096681694634	-0.8608096681694554	-0.09939583905422254	0.006702404488908189	-0.291191573913078	0.04227817153700231	1.376765828184081e-08	-3.217656368557373e-08	-4.36862895940783e-08	-1.770482157762896e-08	2.411459952038899e-08	2.303247621915176e-08	1.499075180307538e-09
0.53	0.1245417341214973	0.05630004996212093	0.906746882814307	0.3007199388530533	-0.3208300031613393	-0.2014398148867905	-0.7517433615662112	0.5464570591892032	0.5464570591891943	-0.1449276597034731	-0.1745134299633199	0.1627360886147784	0.03068510042624031	0.4285593161583757	0.009884610830486541	-0.04958838433714485	-0.09412608516256746	-0.04832793981029546	0.2188430497471499	-0.8335970446514693	0.6875531016499224	0.6875531016499239	0.06204386018607801	1.008979174833096e-05	0.4029826831077092	0.09440938151948844	-0.1108981594908347	0.0422432867525714	-0.002805570740242583	-0.1848821662185461	-0.0118494648739631	0.03260847758539764	0.2313750227021085	-48.5414222426817	-9.405063915477292	5.319898899859018	5.201343734315846	-708.2180430974373	-75.99727152429608	-22.23746962611387	-0.1809155144178534	0.0892636941778064	-0.007647859680995783	-0.4677259619931142	0.1013545778524447	-0.3693891276480732	1.079593198939786	-0.9143699098801364	-0.9143699098773975	-0.09608287766535321	-0.001591747170822663	-0.3217653860079984	0.03455181504394426	1.45444312100848e-08	-2.355145160036355e-08	-4.809823302595643e-08	-1.685827849059565e-08	2.557478521786163e-08	3.041894485723069e-08	2.526872604952193e-09
